<mxfile host="app.diagrams.net" modified="2024-04-20T08:21:51.640Z" agent="Mozilla/5.0 (Windows NT 10.0; Win64; x64; rv:124.0) Gecko/20100101 Firefox/124.0" etag="T9_wGrRFAZ3uzOwIwwIx" version="24.2.3" type="github">
  <diagram name="第 1 页" id="IuZ21-W2MwJ3771QIR-E">
    <mxGraphModel dx="3034" dy="2571" grid="0" gridSize="10" guides="1" tooltips="1" connect="1" arrows="1" fold="1" page="0" pageScale="1" pageWidth="827" pageHeight="1169" math="0" shadow="0">
      <root>
        <mxCell id="0" />
        <mxCell id="1" parent="0" />
        <mxCell id="ZrMqJIstzdSPl8vEg9Mc-193" value="&lt;font style=&quot;font-size: 22px;&quot;&gt;&lt;b style=&quot;font-size: 20px;&quot;&gt;&lt;font style=&quot;font-size: 20px;&quot;&gt;第一阶段：预训练&lt;br&gt;&lt;/font&gt;&lt;/b&gt;&lt;/font&gt;" style="text;html=1;align=center;verticalAlign=middle;resizable=0;points=[];autosize=1;strokeColor=none;fillColor=none;" vertex="1" parent="1">
          <mxGeometry x="-138" y="-827" width="178" height="38" as="geometry" />
        </mxCell>
        <mxCell id="ZrMqJIstzdSPl8vEg9Mc-194" value="&lt;font style=&quot;font-size: 22px;&quot;&gt;&lt;b style=&quot;font-size: 20px;&quot;&gt;&lt;font style=&quot;font-size: 20px;&quot;&gt;第二阶段：动态概念漂移适应分类器&lt;br&gt;&lt;/font&gt;&lt;/b&gt;&lt;/font&gt;" style="text;html=1;align=center;verticalAlign=middle;resizable=0;points=[];autosize=1;strokeColor=none;fillColor=none;" vertex="1" parent="1">
          <mxGeometry x="-213" y="-633" width="338" height="38" as="geometry" />
        </mxCell>
        <mxCell id="ZrMqJIstzdSPl8vEg9Mc-202" value="&lt;font size=&quot;1&quot;&gt;&lt;b style=&quot;font-size: 20px;&quot;&gt;辅助数据集&lt;/b&gt;&lt;/font&gt;" style="shape=cylinder3;whiteSpace=wrap;html=1;boundedLbl=1;backgroundOutline=1;size=15;fillColor=#ffcccc;strokeColor=#36393d;" vertex="1" parent="1">
          <mxGeometry x="317" y="-952" width="108" height="213" as="geometry" />
        </mxCell>
        <mxCell id="ZrMqJIstzdSPl8vEg9Mc-203" value="&lt;font style=&quot;font-size: 20px;&quot;&gt;&lt;b&gt;预训练模型&lt;/b&gt;&lt;/font&gt;" style="verticalLabelPosition=middle;verticalAlign=middle;html=1;shape=trapezoid;perimeter=trapezoidPerimeter;whiteSpace=wrap;size=0.23;arcSize=10;flipV=1;labelPosition=center;align=center;direction=south;fillColor=#fff2cc;gradientColor=#ffd966;strokeColor=#d6b656;" vertex="1" parent="1">
          <mxGeometry x="521" y="-915" width="138" height="127" as="geometry" />
        </mxCell>
        <mxCell id="ZrMqJIstzdSPl8vEg9Mc-204" value="" style="shape=flexArrow;endArrow=classic;html=1;rounded=0;" edge="1" parent="1">
          <mxGeometry width="50" height="50" relative="1" as="geometry">
            <mxPoint x="425" y="-852" as="sourcePoint" />
            <mxPoint x="519" y="-852" as="targetPoint" />
          </mxGeometry>
        </mxCell>
        <mxCell id="ZrMqJIstzdSPl8vEg9Mc-205" value="&lt;font size=&quot;1&quot;&gt;&lt;b style=&quot;font-size: 19px;&quot;&gt;训练数据集1&lt;/b&gt;&lt;/font&gt;" style="shape=cylinder3;whiteSpace=wrap;html=1;boundedLbl=1;backgroundOutline=1;size=15;fillColor=#d5e8d4;strokeColor=#82b366;" vertex="1" parent="1">
          <mxGeometry x="288" y="-629" width="108" height="157" as="geometry" />
        </mxCell>
        <mxCell id="ZrMqJIstzdSPl8vEg9Mc-206" value="&lt;font size=&quot;1&quot;&gt;&lt;b style=&quot;font-size: 20px;&quot;&gt;训练&lt;/b&gt;&lt;/font&gt;" style="text;html=1;align=center;verticalAlign=middle;resizable=0;points=[];autosize=1;strokeColor=none;fillColor=none;" vertex="1" parent="1">
          <mxGeometry x="-67" y="-421" width="58" height="36" as="geometry" />
        </mxCell>
        <mxCell id="ZrMqJIstzdSPl8vEg9Mc-207" value="&lt;font size=&quot;1&quot;&gt;&lt;b style=&quot;font-size: 20px;&quot;&gt;测试&lt;/b&gt;&lt;/font&gt;" style="text;html=1;align=center;verticalAlign=middle;resizable=0;points=[];autosize=1;strokeColor=none;fillColor=none;" vertex="1" parent="1">
          <mxGeometry x="-95" y="139" width="58" height="36" as="geometry" />
        </mxCell>
        <mxCell id="ZrMqJIstzdSPl8vEg9Mc-208" value="&lt;font size=&quot;1&quot;&gt;&lt;b style=&quot;font-size: 19px;&quot;&gt;训练数据集2&lt;/b&gt;&lt;/font&gt;" style="shape=cylinder3;whiteSpace=wrap;html=1;boundedLbl=1;backgroundOutline=1;size=15;fillColor=#d5e8d4;strokeColor=#82b366;" vertex="1" parent="1">
          <mxGeometry x="288" y="-435" width="108" height="157" as="geometry" />
        </mxCell>
        <mxCell id="ZrMqJIstzdSPl8vEg9Mc-209" value="&lt;font size=&quot;1&quot;&gt;&lt;b style=&quot;font-size: 19px;&quot;&gt;训练数据集3&lt;/b&gt;&lt;/font&gt;" style="shape=cylinder3;whiteSpace=wrap;html=1;boundedLbl=1;backgroundOutline=1;size=15;fillColor=#d5e8d4;strokeColor=#82b366;" vertex="1" parent="1">
          <mxGeometry x="288" y="-227" width="108" height="157" as="geometry" />
        </mxCell>
        <mxCell id="ZrMqJIstzdSPl8vEg9Mc-210" value="&lt;font style=&quot;font-size: 20px;&quot;&gt;&lt;b&gt;预训练模型&lt;/b&gt;&lt;/font&gt;" style="verticalLabelPosition=middle;verticalAlign=middle;html=1;shape=trapezoid;perimeter=trapezoidPerimeter;whiteSpace=wrap;size=0.23;arcSize=10;flipV=1;labelPosition=center;align=center;direction=south;fillColor=#fff2cc;gradientColor=#ffd966;strokeColor=#d6b656;" vertex="1" parent="1">
          <mxGeometry x="524" y="-301" width="138" height="127" as="geometry" />
        </mxCell>
        <mxCell id="ZrMqJIstzdSPl8vEg9Mc-211" value="&lt;font size=&quot;1&quot;&gt;&lt;b style=&quot;font-size: 19px;&quot;&gt;训练数据集embedding&lt;/b&gt;&lt;/font&gt;" style="shape=cylinder3;whiteSpace=wrap;html=1;boundedLbl=1;backgroundOutline=1;size=15;fillColor=#d5e8d4;strokeColor=#82b366;" vertex="1" parent="1">
          <mxGeometry x="778" y="-629" width="108" height="157" as="geometry" />
        </mxCell>
        <mxCell id="ZrMqJIstzdSPl8vEg9Mc-212" value="&lt;font size=&quot;1&quot;&gt;&lt;b style=&quot;font-size: 19px;&quot;&gt;训练数据集embedding&lt;/b&gt;&lt;/font&gt;" style="shape=cylinder3;whiteSpace=wrap;html=1;boundedLbl=1;backgroundOutline=1;size=15;fillColor=#d5e8d4;strokeColor=#82b366;" vertex="1" parent="1">
          <mxGeometry x="778" y="-411" width="108" height="157" as="geometry" />
        </mxCell>
        <mxCell id="ZrMqJIstzdSPl8vEg9Mc-213" value="&lt;font size=&quot;1&quot;&gt;&lt;b style=&quot;font-size: 19px;&quot;&gt;训练数据集embedding&lt;/b&gt;&lt;/font&gt;" style="shape=cylinder3;whiteSpace=wrap;html=1;boundedLbl=1;backgroundOutline=1;size=15;fillColor=#d5e8d4;strokeColor=#82b366;" vertex="1" parent="1">
          <mxGeometry x="782" y="-192" width="108" height="157" as="geometry" />
        </mxCell>
        <mxCell id="ZrMqJIstzdSPl8vEg9Mc-214" value="&lt;font style=&quot;font-size: 20px;&quot;&gt;&lt;b&gt;分类器1&lt;/b&gt;&lt;/font&gt;" style="rounded=0;whiteSpace=wrap;html=1;fillColor=#dae8fc;strokeColor=#6c8ebf;" vertex="1" parent="1">
          <mxGeometry x="1060" y="-587" width="120" height="60" as="geometry" />
        </mxCell>
        <mxCell id="ZrMqJIstzdSPl8vEg9Mc-217" value="&lt;font style=&quot;font-size: 20px;&quot;&gt;&lt;b&gt;分类器2&lt;/b&gt;&lt;/font&gt;" style="rounded=0;whiteSpace=wrap;html=1;fillColor=#dae8fc;strokeColor=#6c8ebf;" vertex="1" parent="1">
          <mxGeometry x="1057" y="-393" width="120" height="60" as="geometry" />
        </mxCell>
        <mxCell id="ZrMqJIstzdSPl8vEg9Mc-218" value="&lt;font style=&quot;font-size: 20px;&quot;&gt;&lt;b&gt;分类器3&lt;/b&gt;&lt;/font&gt;" style="rounded=0;whiteSpace=wrap;html=1;fillColor=#dae8fc;strokeColor=#6c8ebf;" vertex="1" parent="1">
          <mxGeometry x="1045" y="-159" width="120" height="60" as="geometry" />
        </mxCell>
        <mxCell id="ZrMqJIstzdSPl8vEg9Mc-234" style="edgeStyle=orthogonalEdgeStyle;rounded=0;orthogonalLoop=1;jettySize=auto;html=1;exitX=0.5;exitY=1;exitDx=0;exitDy=0;entryX=0.5;entryY=0;entryDx=0;entryDy=0;" edge="1" parent="1" source="ZrMqJIstzdSPl8vEg9Mc-220" target="ZrMqJIstzdSPl8vEg9Mc-224">
          <mxGeometry relative="1" as="geometry" />
        </mxCell>
        <mxCell id="ZrMqJIstzdSPl8vEg9Mc-220" value="&lt;div style=&quot;font-size: 20px;&quot;&gt;&lt;font style=&quot;font-size: 20px;&quot;&gt;&lt;b&gt;&lt;font style=&quot;font-size: 20px;&quot;&gt;LSTM&amp;nbsp;&lt;/font&gt;&lt;/b&gt;&lt;/font&gt;&lt;/div&gt;&lt;div style=&quot;font-size: 20px;&quot;&gt;&lt;font style=&quot;font-size: 20px;&quot;&gt;&lt;b&gt;&lt;font style=&quot;font-size: 20px;&quot;&gt;unit f&lt;/font&gt;&lt;/b&gt;&lt;font style=&quot;font-size: 20px;&quot;&gt;&lt;b&gt;&lt;span class=&quot;content-right_2s-H4&quot;&gt;&lt;sub&gt;θ&lt;/sub&gt;&lt;/span&gt;&lt;/b&gt;&lt;/font&gt;&lt;/font&gt;&lt;/div&gt;" style="whiteSpace=wrap;html=1;aspect=fixed;fillColor=#dae8fc;strokeColor=#6c8ebf;gradientColor=#7ea6e0;flipV=1;direction=east;" vertex="1" parent="1">
          <mxGeometry x="1371" y="-378" width="80" height="80" as="geometry" />
        </mxCell>
        <mxCell id="ZrMqJIstzdSPl8vEg9Mc-221" style="rounded=0;orthogonalLoop=1;jettySize=auto;html=1;endArrow=none;endFill=0;exitX=0.5;exitY=0;exitDx=0;exitDy=0;entryX=0.5;entryY=1;entryDx=0;entryDy=0;startArrow=classic;startFill=1;" edge="1" parent="1" source="ZrMqJIstzdSPl8vEg9Mc-220" target="ZrMqJIstzdSPl8vEg9Mc-222">
          <mxGeometry relative="1" as="geometry">
            <mxPoint x="1537" y="-415.7777777777783" as="sourcePoint" />
            <mxPoint x="1464" y="-392.7777777777783" as="targetPoint" />
          </mxGeometry>
        </mxCell>
        <mxCell id="ZrMqJIstzdSPl8vEg9Mc-222" value="&lt;div style=&quot;font-size: 20px;&quot;&gt;&lt;font style=&quot;font-size: 20px;&quot;&gt;&lt;b&gt;&lt;font style=&quot;font-size: 20px;&quot;&gt;LSTM&amp;nbsp;&lt;/font&gt;&lt;/b&gt;&lt;/font&gt;&lt;/div&gt;&lt;div style=&quot;font-size: 20px;&quot;&gt;&lt;font style=&quot;font-size: 20px;&quot;&gt;&lt;b&gt;&lt;font style=&quot;font-size: 20px;&quot;&gt;unit f&lt;/font&gt;&lt;/b&gt;&lt;font style=&quot;font-size: 20px;&quot;&gt;&lt;b&gt;&lt;span class=&quot;content-right_2s-H4&quot;&gt;&lt;sub&gt;θ&lt;/sub&gt;&lt;/span&gt;&lt;/b&gt;&lt;/font&gt;&lt;/font&gt;&lt;/div&gt;" style="whiteSpace=wrap;html=1;aspect=fixed;fillColor=#dae8fc;strokeColor=#6c8ebf;gradientColor=#7ea6e0;flipV=1;direction=east;" vertex="1" parent="1">
          <mxGeometry x="1373" y="-596" width="80" height="80" as="geometry" />
        </mxCell>
        <mxCell id="ZrMqJIstzdSPl8vEg9Mc-235" style="edgeStyle=orthogonalEdgeStyle;rounded=0;orthogonalLoop=1;jettySize=auto;html=1;exitX=0.5;exitY=1;exitDx=0;exitDy=0;entryX=0.5;entryY=0;entryDx=0;entryDy=0;" edge="1" parent="1" source="ZrMqJIstzdSPl8vEg9Mc-224" target="ZrMqJIstzdSPl8vEg9Mc-225">
          <mxGeometry relative="1" as="geometry" />
        </mxCell>
        <mxCell id="ZrMqJIstzdSPl8vEg9Mc-224" value="&lt;div style=&quot;font-size: 20px;&quot;&gt;&lt;font style=&quot;font-size: 20px;&quot;&gt;&lt;b&gt;&lt;font style=&quot;font-size: 20px;&quot;&gt;LSTM&amp;nbsp;&lt;/font&gt;&lt;/b&gt;&lt;/font&gt;&lt;/div&gt;&lt;div style=&quot;font-size: 20px;&quot;&gt;&lt;font style=&quot;font-size: 20px;&quot;&gt;&lt;b&gt;&lt;font style=&quot;font-size: 20px;&quot;&gt;unit f&lt;/font&gt;&lt;/b&gt;&lt;font style=&quot;font-size: 20px;&quot;&gt;&lt;b&gt;&lt;span class=&quot;content-right_2s-H4&quot;&gt;&lt;sub&gt;θ&lt;/sub&gt;&lt;/span&gt;&lt;/b&gt;&lt;/font&gt;&lt;/font&gt;&lt;/div&gt;" style="whiteSpace=wrap;html=1;aspect=fixed;fillColor=#dae8fc;strokeColor=#6c8ebf;gradientColor=#7ea6e0;flipV=1;direction=east;" vertex="1" parent="1">
          <mxGeometry x="1377.5" y="-138" width="80" height="80" as="geometry" />
        </mxCell>
        <mxCell id="ZrMqJIstzdSPl8vEg9Mc-225" value="&lt;div style=&quot;font-size: 20px;&quot;&gt;&lt;font style=&quot;font-size: 20px;&quot;&gt;&lt;b&gt;&lt;font style=&quot;font-size: 20px;&quot;&gt;LSTM&amp;nbsp;&lt;/font&gt;&lt;/b&gt;&lt;/font&gt;&lt;/div&gt;&lt;div style=&quot;font-size: 20px;&quot;&gt;&lt;font style=&quot;font-size: 20px;&quot;&gt;&lt;b&gt;&lt;font style=&quot;font-size: 20px;&quot;&gt;unit f&lt;/font&gt;&lt;/b&gt;&lt;font style=&quot;font-size: 20px;&quot;&gt;&lt;b&gt;&lt;span class=&quot;content-right_2s-H4&quot;&gt;&lt;sub&gt;θ&lt;/sub&gt;&lt;/span&gt;&lt;/b&gt;&lt;/font&gt;&lt;/font&gt;&lt;/div&gt;" style="whiteSpace=wrap;html=1;aspect=fixed;fillColor=#dae8fc;strokeColor=#6c8ebf;gradientColor=#7ea6e0;flipV=1;direction=east;" vertex="1" parent="1">
          <mxGeometry x="1369" y="136" width="80" height="80" as="geometry" />
        </mxCell>
        <mxCell id="ZrMqJIstzdSPl8vEg9Mc-226" value="" style="shape=orEllipse;perimeter=ellipsePerimeter;whiteSpace=wrap;html=1;backgroundOutline=1;fillColor=#e1d5e7;strokeColor=#9673a6;flipV=1;direction=east;" vertex="1" parent="1">
          <mxGeometry x="1427" y="-488" width="40" height="40" as="geometry" />
        </mxCell>
        <mxCell id="ZrMqJIstzdSPl8vEg9Mc-227" value="" style="shape=orEllipse;perimeter=ellipsePerimeter;whiteSpace=wrap;html=1;backgroundOutline=1;fillColor=#e1d5e7;strokeColor=#9673a6;flipV=1;direction=east;" vertex="1" parent="1">
          <mxGeometry x="1435" y="-288" width="40" height="40" as="geometry" />
        </mxCell>
        <mxCell id="ZrMqJIstzdSPl8vEg9Mc-228" value="" style="shape=orEllipse;perimeter=ellipsePerimeter;whiteSpace=wrap;html=1;backgroundOutline=1;fillColor=#e1d5e7;strokeColor=#9673a6;flipV=1;direction=east;" vertex="1" parent="1">
          <mxGeometry x="1438" y="-42" width="40" height="40" as="geometry" />
        </mxCell>
        <mxCell id="ZrMqJIstzdSPl8vEg9Mc-229" value="&lt;font size=&quot;1&quot;&gt;&lt;b style=&quot;font-size: 19px;&quot;&gt;测试数据集3&lt;/b&gt;&lt;/font&gt;" style="shape=cylinder3;whiteSpace=wrap;html=1;boundedLbl=1;backgroundOutline=1;size=15;fillColor=#d5e8d4;strokeColor=#82b366;" vertex="1" parent="1">
          <mxGeometry x="290" y="100" width="108" height="157" as="geometry" />
        </mxCell>
        <mxCell id="ZrMqJIstzdSPl8vEg9Mc-230" value="&lt;font size=&quot;1&quot;&gt;&lt;b style=&quot;font-size: 19px;&quot;&gt;测试数据集embedding&lt;/b&gt;&lt;/font&gt;" style="shape=cylinder3;whiteSpace=wrap;html=1;boundedLbl=1;backgroundOutline=1;size=15;fillColor=#d5e8d4;strokeColor=#82b366;" vertex="1" parent="1">
          <mxGeometry x="769" y="100" width="108" height="157" as="geometry" />
        </mxCell>
        <mxCell id="ZrMqJIstzdSPl8vEg9Mc-231" value="&lt;font style=&quot;font-size: 20px;&quot;&gt;&lt;b&gt;预测分类器&lt;/b&gt;&lt;/font&gt;" style="rounded=0;whiteSpace=wrap;html=1;fillColor=#dae8fc;strokeColor=#6c8ebf;" vertex="1" parent="1">
          <mxGeometry x="1053" y="134" width="120" height="60" as="geometry" />
        </mxCell>
      </root>
    </mxGraphModel>
  </diagram>
</mxfile>
